<svg width="28" height="12" viewBox="0 0 28 12" fill="none" xmlns="http://www.w3.org/2000/svg">
<path d="M5.76991 2.08156C6.0809 1.69258 6.29194 1.17028 6.23628 0.636566C5.78103 0.659203 5.22549 0.936909 4.90386 1.3262C4.61506 1.65956 4.35946 2.20372 4.4261 2.71507C4.93713 2.7594 5.4477 2.45963 5.76991 2.08156Z" fill="#000008"/>
<path d="M6.23049 2.81491C5.48834 2.77071 4.85733 3.23612 4.50291 3.23612C4.1483 3.23612 3.60558 2.83719 3.01857 2.84794C2.25455 2.85917 1.54563 3.29115 1.15792 3.97821C0.360471 5.35266 0.947474 7.39146 1.72295 8.51087C2.09954 9.06468 2.55339 9.67447 3.15142 9.65256C3.71645 9.63039 3.93792 9.28669 4.62474 9.28669C5.31105 9.28669 5.51055 9.65256 6.10867 9.64148C6.72893 9.63039 7.11671 9.08739 7.49329 8.53304C7.92531 7.90173 8.10217 7.29214 8.11329 7.25868C8.10216 7.24759 6.91724 6.79303 6.90626 5.43C6.89507 4.28871 7.83655 3.74586 7.88086 3.71219C7.3492 2.92586 6.51848 2.83719 6.23049 2.81491Z" fill="#000008"/>
<path d="M12.6926 1.27037C14.3056 1.27037 15.4288 2.38227 15.4288 4.0011C15.4288 5.62572 14.2825 6.74339 12.6521 6.74339H10.8661V9.58358H9.57579V1.27037L12.6926 1.27037ZM10.8661 5.66027H12.3467C13.4702 5.66027 14.1096 5.05543 14.1096 4.00688C14.1096 2.95844 13.4702 2.35926 12.3525 2.35926H10.8661V5.66027Z" fill="#000008"/>
<path d="M15.766 7.86105C15.766 6.80093 16.5783 6.14998 18.0186 6.0693L19.6777 5.9714V5.5048C19.6777 4.83073 19.2225 4.42746 18.4622 4.42746C17.7419 4.42746 17.2926 4.77306 17.1832 5.31467H16.008C16.0771 4.22 17.0103 3.41347 18.5082 3.41347C19.9773 3.41347 20.9163 4.19122 20.9163 5.40679V9.58356H19.7237V8.5869H19.695C19.3437 9.26097 18.5774 9.68724 17.7824 9.68724C16.5956 9.68724 15.766 8.94983 15.766 7.86105ZM19.6777 7.31377V6.83561L18.1855 6.92773C17.4424 6.97962 17.0219 7.30799 17.0219 7.82649C17.0219 8.35643 17.4597 8.70213 18.128 8.70213C18.9978 8.70213 19.6777 8.10296 19.6777 7.31377Z" fill="#000008"/>
<path d="M22.0422 11.8131V10.8049C22.1342 10.8279 22.3415 10.8279 22.4453 10.8279C23.0214 10.8279 23.3325 10.586 23.5225 9.96382C23.5225 9.95226 23.6321 9.59512 23.6321 9.58934L21.443 3.52292H22.7909L24.3235 8.45444H24.3464L25.879 3.52292H27.1925L24.9225 9.90037C24.4042 11.3695 23.805 11.8419 22.5491 11.8419C22.4453 11.8419 22.1342 11.8303 22.0422 11.8131Z" fill="#000008"/>
</svg>
