<svg width="29" height="13" viewBox="0 0 29 13" fill="none" xmlns="http://www.w3.org/2000/svg">
<path d="M13.601 9.61412H12.5525V1.45587H15.332C16.0364 1.45587 16.6371 1.69068 17.1286 2.1603C17.631 2.62991 17.8821 3.20329 17.8821 3.88041C17.8821 4.57391 17.631 5.14728 17.1286 5.61144C16.6426 6.0756 16.0419 6.30495 15.332 6.30495H13.601V9.61412ZM13.601 2.46063V5.30564H15.3539C15.7689 5.30564 16.1184 5.16367 16.3914 4.88517C16.6699 4.60668 16.8119 4.26812 16.8119 3.88587C16.8119 3.50908 16.6699 3.17598 16.3914 2.89749C16.1184 2.60807 15.7743 2.46609 15.3539 2.46609H13.601V2.46063Z" fill="#3C4043"/>
<path d="M20.6233 3.84764C21.3987 3.84764 22.0103 4.05515 22.4581 4.47016C22.9058 4.88517 23.1297 5.45308 23.1297 6.17389V9.61412H22.1304V8.8387H22.0867C21.6553 9.4776 21.0765 9.79432 20.3557 9.79432C19.7387 9.79432 19.2254 9.61412 18.8103 9.24825C18.3953 8.88239 18.1878 8.42915 18.1878 7.88308C18.1878 7.30425 18.4063 6.84555 18.8431 6.50699C19.28 6.16297 19.8643 5.99369 20.5905 5.99369C21.213 5.99369 21.7263 6.10836 22.125 6.33771V6.09744C22.125 5.73158 21.983 5.42578 21.6936 5.16913C21.4042 4.91247 21.0656 4.78688 20.6779 4.78688C20.0936 4.78688 19.6294 5.03261 19.2909 5.52953L18.368 4.9507C18.8759 4.21351 19.6294 3.84764 20.6233 3.84764ZM19.269 7.89946C19.269 8.1725 19.3837 8.40185 19.6185 8.58205C19.8479 8.76225 20.1209 8.85508 20.4322 8.85508C20.8745 8.85508 21.2676 8.69126 21.6117 8.36362C21.9557 8.03598 22.1304 7.65374 22.1304 7.21142C21.8028 6.95477 21.3496 6.82371 20.7653 6.82371C20.3393 6.82371 19.9844 6.92747 19.7004 7.12951C19.411 7.34248 19.269 7.59913 19.269 7.89946Z" fill="#3C4043"/>
<path d="M28.8307 4.0279L25.3359 12.066H24.2547L25.5543 9.25377L23.2499 4.0279H24.3912L26.0512 8.03603H26.0731L27.6894 4.0279H28.8307Z" fill="#3C4043"/>
<path d="M9.43063 5.64421C9.43063 5.30237 9.40005 4.97528 9.34326 4.66074H4.94853V6.46277L7.47954 6.46331C7.37688 7.06289 7.04651 7.57401 6.54031 7.91476V9.08389H8.0469C8.92661 8.2697 9.43063 7.06617 9.43063 5.64421Z" fill="#4285F4"/>
<path d="M6.54084 7.91481C6.12146 8.19768 5.5814 8.36314 4.94961 8.36314C3.72915 8.36314 2.69381 7.54076 2.32303 6.43224H0.768935V7.63796C1.53889 9.16586 3.12138 10.2143 4.94961 10.2143C6.2132 10.2143 7.27475 9.79875 8.04743 9.0834L6.54084 7.91481Z" fill="#34A853"/>
<path d="M2.17664 5.53772C2.17664 5.22646 2.22852 4.92557 2.32299 4.64271V3.43699H0.768888C0.450532 4.06879 0.271423 4.78196 0.271423 5.53772C0.271423 6.29347 0.451078 7.00664 0.768888 7.63844L2.32299 6.43272C2.22852 6.14986 2.17664 5.84897 2.17664 5.53772Z" fill="#FABB05"/>
<path d="M4.94961 2.71183C5.63929 2.71183 6.25689 2.94937 6.74452 3.41352L8.07965 2.07948C7.26874 1.32427 6.21156 0.860657 4.94961 0.860657C3.12193 0.860657 1.53884 1.9091 0.768888 3.43699L2.32299 4.64271C2.69377 3.53419 3.72915 2.71183 4.94961 2.71183Z" fill="#E94235"/>
</svg>
