<svg width="26" height="16" viewBox="0 0 26 16" fill="none" xmlns="http://www.w3.org/2000/svg">
<path d="M16.3485 1.81802H9.48519V14.1515H16.3485V1.81802Z" fill="#FF5F00"/>
<path d="M9.921 7.98477C9.91992 6.79697 10.1891 5.62448 10.7081 4.55608C11.2272 3.48768 11.9825 2.55136 12.9169 1.81802C11.7597 0.9085 10.3701 0.342885 8.9067 0.18582C7.44333 0.0287544 5.96529 0.286572 4.64152 0.929815C3.31774 1.57306 2.20165 2.57577 1.42081 3.82334C0.63997 5.07091 0.225891 6.51299 0.225891 7.98477C0.225891 9.45655 0.63997 10.8986 1.42081 12.1462C2.20165 13.3938 3.31774 14.3965 4.64152 15.0397C5.96529 15.683 7.44333 15.9408 8.9067 15.7837C10.3701 15.6267 11.7597 15.061 12.9169 14.1515C11.9825 13.4182 11.2272 12.4819 10.7081 11.4135C10.1891 10.3451 9.91993 9.17258 9.921 7.98477Z" fill="#EB001B"/>
<path d="M25.6074 7.98477C25.6075 9.45653 25.1934 10.8986 24.4126 12.1462C23.6318 13.3937 22.5158 14.3965 21.192 15.0397C19.8683 15.683 18.3903 15.9408 16.9269 15.7837C15.4636 15.6267 14.0739 15.061 12.9169 14.1515C13.8504 13.4174 14.6051 12.481 15.1241 11.4127C15.643 10.3445 15.9127 9.17239 15.9127 7.98477C15.9127 6.79715 15.643 5.62503 15.1241 4.5568C14.6051 3.48857 13.8504 2.5521 12.9169 1.81802C14.0739 0.908499 15.4636 0.342881 16.9269 0.185818C18.3903 0.0287543 19.8683 0.286583 21.192 0.929833C22.5158 1.57308 23.6318 2.5758 24.4126 3.82336C25.1934 5.07093 25.6075 6.51301 25.6074 7.98477Z" fill="#F79E1B"/>
<path d="M24.8591 12.8452V12.5927H24.9609V12.5413H24.7016V12.5927H24.8035V12.8452H24.8591ZM25.3625 12.8452V12.5408H25.283L25.1916 12.7502L25.1002 12.5408H25.0206V12.8452H25.0768V12.6156L25.1625 12.8136H25.2207L25.3064 12.6151V12.8452H25.3625Z" fill="#F79E1B"/>
</svg>
