<svg width="27" height="15" viewBox="0 0 27 15" fill="none" xmlns="http://www.w3.org/2000/svg">
<g clip-path="url(#clip0_14_2342)">
<path d="M5.38597 2.30498C6.20811 1.46218 7.29894 0.969635 8.57997 0.969635C11.0761 0.969635 12.731 2.74832 13.049 5.41264C13.1517 6.27805 13.1507 7.49797 13.1496 8.91097V14.6449H9.71603V10.7301C9.71603 10.7301 9.70922 7.37909 9.68878 6.75304C9.59559 4.02543 7.94122 2.31163 5.3857 2.30977C4.61479 3.1047 4.20167 4.07676 4.14063 5.5629C4.13246 5.77008 4.13437 6.5049 4.13736 7.47324C4.13736 7.97482 4.14036 8.53944 4.14063 9.1256C4.14336 11.6787 4.14063 14.6454 4.14063 14.6454H0.708194V8.62029C0.708194 8.41364 0.704379 8.20567 0.700564 7.99663C0.692661 7.57589 0.684759 7.15223 0.708194 6.73282C0.746889 6.03337 0.871695 5.34562 1.20524 4.70706C1.97097 3.24433 3.53922 2.30152 5.21102 2.30152C5.26961 2.30152 5.32793 2.30285 5.3857 2.30498H5.38597Z" fill="#820AD1"/>
<path d="M26.6773 9.20644C26.7005 8.78704 26.6928 8.36311 26.6849 7.94264C26.6811 7.7336 26.6773 7.52562 26.6773 7.31898V1.29383H23.2438C23.2438 1.29383 23.2411 4.26159 23.2438 6.81367C23.2438 7.39877 23.2457 7.96418 23.2471 8.46603C23.2498 9.43437 23.252 10.1681 23.2438 10.3764C23.1827 11.8625 22.7696 12.8346 21.9987 13.6295C19.4446 13.629 17.7899 11.9138 17.697 9.18756C17.676 8.56124 17.6673 7.00675 17.6673 5.20732V1.29117L14.2373 1.29436V6.58681C14.2373 6.73539 14.2373 6.88229 14.2373 7.0275C14.2373 8.4405 14.2354 9.66042 14.3379 10.5256C14.654 13.1901 16.3089 14.9688 18.805 14.9688C20.0858 14.9688 21.1758 14.4763 21.999 13.6332C22.0568 13.6355 22.115 13.6367 22.1737 13.6367C23.8457 13.6367 25.414 12.6947 26.1795 11.2314C26.5141 10.5931 26.6381 9.9051 26.6768 9.20565L26.6773 9.20644Z" fill="#820AD1"/>
</g>
<defs>
<clipPath id="clip0_14_2342">
<rect width="26" height="14" fill="white" transform="translate(0.692841 0.969635)"/>
</clipPath>
</defs>
</svg>
