<svg width="35" height="10" viewBox="0 0 35 10" fill="none" xmlns="http://www.w3.org/2000/svg">
<path fill-rule="evenodd" clip-rule="evenodd" d="M4.27571 0.646026H1.58822C1.40431 0.646026 1.2479 0.779672 1.21922 0.961141L0.13226 7.85188C0.110655 7.98789 0.215968 8.11045 0.353904 8.11045H1.63694C1.82085 8.11045 1.97726 7.9768 2.00594 7.79497L2.2991 5.93645C2.32738 5.75444 2.48418 5.62097 2.66771 5.62097H3.51847C5.28882 5.62097 6.31048 4.76436 6.57744 3.06695C6.69764 2.32434 6.58253 1.74084 6.23464 1.33208C5.85275 0.883498 5.17516 0.646026 4.27571 0.646026ZM4.58577 3.16277C4.43883 4.12703 3.702 4.12703 2.98955 4.12703H2.584L2.86851 2.32616C2.8854 2.21743 2.97971 2.13724 3.08975 2.13724H3.27562C3.76094 2.13724 4.21879 2.13724 4.45538 2.4138C4.59632 2.57891 4.6396 2.82402 4.58577 3.16277ZM12.3093 3.13186H11.0223C10.9127 3.13186 10.8179 3.21205 10.801 3.32097L10.7441 3.68082L10.6541 3.55044C10.3755 3.14604 9.75425 3.01094 9.13412 3.01094C7.71184 3.01094 6.49724 4.08794 6.26065 5.59879C6.13771 6.3523 6.31248 7.07291 6.74002 7.57549C7.13228 8.03753 7.69348 8.23009 8.36106 8.23009C9.50692 8.23009 10.1425 7.4933 10.1425 7.4933L10.085 7.85097C10.0634 7.98771 10.1687 8.11027 10.3058 8.11027H11.4651C11.6495 8.11027 11.805 7.97662 11.8341 7.79478L12.5297 3.39043C12.5517 3.25496 12.4468 3.13186 12.3093 3.13186ZM10.5153 5.63643C10.3911 6.37157 9.80753 6.86508 9.06338 6.86508C8.68967 6.86508 8.39089 6.74524 8.19921 6.51814C8.00899 6.29266 7.93661 5.97155 7.99717 5.61406C8.11319 4.8851 8.70658 4.3756 9.43946 4.3756C9.8048 4.3756 10.1019 4.49688 10.2976 4.72599C10.4937 4.95746 10.5715 5.2804 10.5153 5.63643ZM17.8702 3.13168H19.1636C19.3447 3.13168 19.4503 3.33479 19.3474 3.48335L15.046 9.69148C14.9764 9.79203 14.8616 9.85186 14.739 9.85186H13.4473C13.2655 9.85186 13.1593 9.64711 13.2646 9.49819L14.6039 7.60786L13.1795 3.42788C13.1302 3.2826 13.2375 3.13168 13.3921 3.13168H14.6628C14.828 3.13168 14.9736 3.24005 15.0213 3.39807L15.7773 5.92263L17.5611 3.29551C17.6309 3.19296 17.7469 3.13168 17.8702 3.13168Z" fill="#253B80"/>
<path fill-rule="evenodd" clip-rule="evenodd" d="M31.8928 7.85126L32.9957 0.834518C33.0126 0.7256 33.107 0.645414 33.2167 0.64505H34.4584C34.5955 0.64505 34.7008 0.767968 34.6791 0.903979L33.5915 7.79435C33.5631 7.97618 33.4067 8.10983 33.2225 8.10983H32.1135C31.9764 8.10983 31.8711 7.98728 31.8928 7.85126ZM23.4458 0.645411H20.7578C20.5744 0.645411 20.418 0.779058 20.3892 0.960527L19.3023 7.85126C19.2806 7.98728 19.3859 8.10983 19.5232 8.10983H20.9024C21.0306 8.10983 21.1403 8.01637 21.1603 7.88909L21.4687 5.93584C21.4971 5.75382 21.6538 5.62036 21.8373 5.62036H22.6877C24.4584 5.62036 25.4799 4.76374 25.747 3.06633C25.8676 2.32373 25.7517 1.74023 25.404 1.33147C25.0223 0.882886 24.3453 0.645411 23.4458 0.645411ZM23.7559 3.16216C23.6093 4.12642 22.8724 4.12642 22.1596 4.12642H21.7544L22.0394 2.32555C22.0563 2.21681 22.1498 2.13662 22.2601 2.13662H22.446C22.931 2.13662 23.3893 2.13662 23.6257 2.41319C23.7668 2.57829 23.8097 2.82341 23.7559 3.16216ZM31.4787 3.13125H30.1926C30.082 3.13125 29.9882 3.21144 29.9717 3.32035L29.9147 3.6802L29.8244 3.54983C29.5458 3.14543 28.9249 3.01033 28.3048 3.01033C26.8825 3.01033 25.6683 4.08733 25.4317 5.59818C25.3091 6.35169 25.4831 7.07229 25.9107 7.57488C26.3037 8.03692 26.8641 8.22948 27.5317 8.22948C28.6776 8.22948 29.313 7.49269 29.313 7.49269L29.2557 7.85036C29.2341 7.9871 29.3394 8.10965 29.4774 8.10965H30.6362C30.8196 8.10965 30.976 7.976 31.0048 7.79417L31.7007 3.38982C31.722 3.25435 31.6167 3.13125 31.4787 3.13125ZM29.6849 5.63581C29.5614 6.37096 28.9771 6.86446 28.2328 6.86446C27.8598 6.86446 27.5605 6.74463 27.3686 6.51752C27.1784 6.29205 27.1069 5.97094 27.1667 5.61345C27.2833 4.88448 27.876 4.37499 28.6088 4.37499C28.9744 4.37499 29.2713 4.49627 29.4672 4.72538C29.664 4.95685 29.7418 5.27978 29.6849 5.63581Z" fill="#179BD7"/>
</svg>
