<svg width="34" height="12" viewBox="0 0 34 12" fill="none" xmlns="http://www.w3.org/2000/svg">
<path d="M17.1007 1.09087L14.9265 11.2544H12.2974L14.4719 1.09087H17.1007ZM28.1624 7.65351L29.5466 3.83675L30.3431 7.65351H28.1624ZM31.0958 11.2544H33.5277L31.4056 1.09087H29.1609C28.6565 1.09087 28.2309 1.38424 28.0414 1.83653L24.097 11.2544H26.858L27.4061 9.73672H30.7793L31.0958 11.2544ZM24.234 7.93595C24.2453 5.25344 20.5244 5.10579 20.5501 3.90752C20.5578 3.54241 20.9056 3.15511 21.6651 3.05571C22.0424 3.00649 23.0798 2.96885 24.2578 3.51089L24.7191 1.35561C24.0864 1.12593 23.2722 0.904938 22.2595 0.904938C19.661 0.904938 17.8319 2.28656 17.8165 4.26491C17.8001 5.72792 19.1222 6.54435 20.1184 7.03073C21.1427 7.52902 21.4869 7.84813 21.4823 8.29366C21.4756 8.97595 20.6653 9.2764 19.9093 9.2883C18.5872 9.30921 17.82 8.93155 17.2085 8.64654L16.7321 10.8735C17.3462 11.1557 18.4801 11.4008 19.6565 11.4133C22.4181 11.4133 24.225 10.0488 24.234 7.93595ZM13.3438 1.09087L9.08409 11.2544H6.30444L4.20836 3.1432C4.08097 2.64363 3.97031 2.46091 3.58333 2.25021C2.95187 1.90762 1.90801 1.58562 0.989609 1.38617L1.05234 1.09087H5.52597C6.09599 1.09087 6.60907 1.47046 6.73838 2.12701L7.84561 8.00865L10.5815 1.09087H13.3438Z" fill="#1434CB"/>
</svg>
